# xmcd
#
# Track frame offsets:
#	225
#	12857
#	28903
#	48728
#	66856
#	89494
#	105209
#	116084
#	143798
#	157667
#	170841
#	183277
#	197547
#	212919
#	225729
#	250483
#	266296
#	278999
#	290714
#	304307
#
# Disc length: 4292 seconds
#
# Revision: 1
# Processed by: cddbd v1.5.1PL0 Copyright (c) Steve Scherf et al.
# Submitted via: audiograbber 1.83.01
#
DISCID=2810c114
DTITLE=Various Artist - Gospel Train CD2
DYEAR=1900
DGENRE=Gospel
TTITLE0=Joe Simon - My Special Prayer
TTITLE1=The Happy day Singers - The old Rugged Cross
TTITLE2=United Gospel Singers L. A. - The Blood
TTITLE3=Church on The Street Singers - People get Ready
TTITLE4=United Gospel Chorus of N.Y. - Musik in the Air (live)
TTITLE5=Slim Whitman - God Be With You
TTITLE6=Paul Kelly - Bath in your Own Glory
TTITLE7=Aretha Franklin - While The Blood Runs Warm
TTITLE8=Golden Gate Quartet - Go Down Moses
TTITLE9=The Pretty Singers - Sky Boat Song
TTITLE10=The Lee Paterson Singers - Joshua Fit The Battle Of Jericho
TTITLE11=The Jordanaires - Onward Christian Soldiers
TTITLE12=The Harmonizing Four - Rock of Ages
TTITLE13=Swan Silvertones - Working On A Building
TTITLE14=The Carolina Spirituals - It´s Gonna Rain
TTITLE15=Highway Q C`S - Amazing Grase
TTITLE16=The Blind Boys Of Missisippi - Where He Leads Me
TTITLE17=The Caravans - Lord Don´t Leave Us Now
TTITLE18=The Staple Singers - Uncloud Day
TTITLE19=The Greater Harvest Chor - He Is The Way
EXTD=
EXTT0=
EXTT1=
EXTT2=
EXTT3=
EXTT4=
EXTT5=
EXTT6=
EXTT7=
EXTT8=
EXTT9=
EXTT10=
EXTT11=
EXTT12=
EXTT13=
EXTT14=
EXTT15=
EXTT16=
EXTT17=
EXTT18=
EXTT19=
PLAYORDER=
